<?xml version='1.0' encoding='UTF-8'?>
<svg width="35mm" height="35mm" version="1.1" viewBox="0 0 35 35" xmlns="http://www.w3.org/2000/svg"><path d="M1,1H2V2H1zM2,1H3V2H2zM3,1H4V2H3zM4,1H5V2H4zM5,1H6V2H5zM6,1H7V2H6zM7,1H8V2H7zM9,1H10V2H9zM12,1H13V2H12zM13,1H14V2H13zM17,1H18V2H17zM18,1H19V2H18zM19,1H20V2H19zM20,1H21V2H20zM22,1H23V2H22zM23,1H24V2H23zM24,1H25V2H24zM27,1H28V2H27zM28,1H29V2H28zM29,1H30V2H29zM30,1H31V2H30zM31,1H32V2H31zM32,1H33V2H32zM33,1H34V2H33zM1,2H2V3H1zM7,2H8V3H7zM9,2H10V3H9zM13,2H14V3H13zM15,2H16V3H15zM17,2H18V3H17zM18,2H19V3H18zM19,2H20V3H19zM21,2H22V3H21zM22,2H23V3H22zM24,2H25V3H24zM25,2H26V3H25zM27,2H28V3H27zM33,2H34V3H33zM1,3H2V4H1zM3,3H4V4H3zM4,3H5V4H4zM5,3H6V4H5zM7,3H8V4H7zM10,3H11V4H10zM11,3H12V4H11zM12,3H13V4H12zM14,3H15V4H14zM15,3H16V4H15zM16,3H17V4H16zM25,3H26V4H25zM27,3H28V4H27zM29,3H30V4H29zM30,3H31V4H30zM31,3H32V4H31zM33,3H34V4H33zM1,4H2V5H1zM3,4H4V5H3zM4,4H5V5H4zM5,4H6V5H5zM7,4H8V5H7zM9,4H10V5H9zM16,4H17V5H16zM19,4H20V5H19zM23,4H24V5H23zM24,4H25V5H24zM25,4H26V5H25zM27,4H28V5H27zM29,4H30V5H29zM30,4H31V5H30zM31,4H32V5H31zM33,4H34V5H33zM1,5H2V6H1zM3,5H4V6H3zM4,5H5V6H4zM5,5H6V6H5zM7,5H8V6H7zM10,5H11V6H10zM11,5H12V6H11zM17,5H18V6H17zM20,5H21V6H20zM22,5H23V6H22zM25,5H26V6H25zM27,5H28V6H27zM29,5H30V6H29zM30,5H31V6H30zM31,5H32V6H31zM33,5H34V6H33zM1,6H2V7H1zM7,6H8V7H7zM10,6H11V7H10zM13,6H14V7H13zM14,6H15V7H14zM16,6H17V7H16zM17,6H18V7H17zM18,6H19V7H18zM19,6H20V7H19zM20,6H21V7H20zM21,6H22V7H21zM23,6H24V7H23zM25,6H26V7H25zM27,6H28V7H27zM33,6H34V7H33zM1,7H2V8H1zM2,7H3V8H2zM3,7H4V8H3zM4,7H5V8H4zM5,7H6V8H5zM6,7H7V8H6zM7,7H8V8H7zM9,7H10V8H9zM11,7H12V8H11zM13,7H14V8H13zM15,7H16V8H15zM17,7H18V8H17zM19,7H20V8H19zM21,7H22V8H21zM23,7H24V8H23zM25,7H26V8H25zM27,7H28V8H27zM28,7H29V8H28zM29,7H30V8H29zM30,7H31V8H30zM31,7H32V8H31zM32,7H33V8H32zM33,7H34V8H33zM9,8H10V9H9zM10,8H11V9H10zM16,8H17V9H16zM17,8H18V9H17zM18,8H19V9H18zM23,8H24V9H23zM25,8H26V9H25zM1,9H2V10H1zM3,9H4V10H3zM4,9H5V10H4zM6,9H7V10H6zM7,9H8V10H7zM8,9H9V10H8zM12,9H13V10H12zM15,9H16V10H15zM16,9H17V10H16zM18,9H19V10H18zM19,9H20V10H19zM22,9H23V10H22zM23,9H24V10H23zM24,9H25V10H24zM27,9H28V10H27zM30,9H31V10H30zM32,9H33V10H32zM33,9H34V10H33zM2,10H3V11H2zM3,10H4V11H3zM4,10H5V11H4zM6,10H7V11H6zM8,10H9V11H8zM12,10H13V11H12zM13,10H14V11H13zM14,10H15V11H14zM17,10H18V11H17zM18,10H19V11H18zM19,10H20V11H19zM20,10H21V11H20zM21,10H22V11H21zM22,10H23V11H22zM24,10H25V11H24zM27,10H28V11H27zM28,10H29V11H28zM30,10H31V11H30zM31,10H32V11H31zM33,10H34V11H33zM2,11H3V12H2zM6,11H7V12H6zM7,11H8V12H7zM9,11H10V12H9zM10,11H11V12H10zM11,11H12V12H11zM14,11H15V12H14zM17,11H18V12H17zM19,11H20V12H19zM24,11H25V12H24zM25,11H26V12H25zM26,11H27V12H26zM28,11H29V12H28zM29,11H30V12H29zM30,11H31V12H30zM32,11H33V12H32zM33,11H34V12H33zM1,12H2V13H1zM4,12H5V13H4zM8,12H9V13H8zM9,12H10V13H9zM10,12H11V13H10zM11,12H12V13H11zM13,12H14V13H13zM17,12H18V13H17zM18,12H19V13H18zM20,12H21V13H20zM21,12H22V13H21zM26,12H27V13H26zM28,12H29V13H28zM30,12H31V13H30zM1,13H2V14H1zM2,13H3V14H2zM4,13H5V14H4zM5,13H6V14H5zM6,13H7V14H6zM7,13H8V14H7zM10,13H11V14H10zM11,13H12V14H11zM15,13H16V14H15zM17,13H18V14H17zM23,13H24V14H23zM25,13H26V14H25zM26,13H27V14H26zM28,13H29V14H28zM29,13H30V14H29zM30,13H31V14H30zM32,13H33V14H32zM33,13H34V14H33zM1,14H2V15H1zM2,14H3V15H2zM4,14H5V15H4zM5,14H6V15H5zM9,14H10V15H9zM10,14H11V15H10zM13,14H14V15H13zM14,14H15V15H14zM15,14H16V15H15zM20,14H21V15H20zM22,14H23V15H22zM23,14H24V15H23zM26,14H27V15H26zM28,14H29V15H28zM30,14H31V15H30zM32,14H33V15H32zM1,15H2V16H1zM6,15H7V16H6zM7,15H8V16H7zM9,15H10V16H9zM11,15H12V16H11zM15,15H16V16H15zM20,15H21V16H20zM22,15H23V16H22zM25,15H26V16H25zM27,15H28V16H27zM28,15H29V16H28zM29,15H30V16H29zM30,15H31V16H30zM31,15H32V16H31zM1,16H2V17H1zM2,16H3V17H2zM10,16H11V17H10zM13,16H14V17H13zM14,16H15V17H14zM15,16H16V17H15zM16,16H17V17H16zM21,16H22V17H21zM22,16H23V17H22zM24,16H25V17H24zM26,16H27V17H26zM27,16H28V17H27zM30,16H31V17H30zM31,16H32V17H31zM4,17H5V18H4zM6,17H7V18H6zM7,17H8V18H7zM8,17H9V18H8zM10,17H11V18H10zM11,17H12V18H11zM14,17H15V18H14zM17,17H18V18H17zM19,17H20V18H19zM22,17H23V18H22zM23,17H24V18H23zM24,17H25V18H24zM26,17H27V18H26zM27,17H28V18H27zM29,17H30V18H29zM30,17H31V18H30zM31,17H32V18H31zM1,18H2V19H1zM2,18H3V19H2zM3,18H4V19H3zM4,18H5V19H4zM6,18H7V19H6zM9,18H10V19H9zM11,18H12V19H11zM13,18H14V19H13zM16,18H17V19H16zM21,18H22V19H21zM23,18H24V19H23zM24,18H25V19H24zM25,18H26V19H25zM27,18H28V19H27zM29,18H30V19H29zM30,18H31V19H30zM32,18H33V19H32zM33,18H34V19H33zM5,19H6V20H5zM6,19H7V20H6zM7,19H8V20H7zM8,19H9V20H8zM9,19H10V20H9zM10,19H11V20H10zM11,19H12V20H11zM13,19H14V20H13zM14,19H15V20H14zM15,19H16V20H15zM16,19H17V20H16zM17,19H18V20H17zM19,19H20V20H19zM26,19H27V20H26zM28,19H29V20H28zM29,19H30V20H29zM31,19H32V20H31zM1,20H2V21H1zM2,20H3V21H2zM3,20H4V21H3zM4,20H5V21H4zM10,20H11V21H10zM11,20H12V21H11zM15,20H16V21H15zM17,20H18V21H17zM18,20H19V21H18zM19,20H20V21H19zM21,20H22V21H21zM25,20H26V21H25zM27,20H28V21H27zM29,20H30V21H29zM32,20H33V21H32zM5,21H6V22H5zM7,21H8V22H7zM9,21H10V22H9zM10,21H11V22H10zM11,21H12V22H11zM12,21H13V22H12zM13,21H14V22H13zM15,21H16V22H15zM16,21H17V22H16zM17,21H18V22H17zM21,21H22V22H21zM22,21H23V22H22zM28,21H29V22H28zM30,21H31V22H30zM31,21H32V22H31zM1,22H2V23H1zM3,22H4V23H3zM10,22H11V23H10zM11,22H12V23H11zM16,22H17V23H16zM17,22H18V23H17zM18,22H19V23H18zM20,22H21V23H20zM21,22H22V23H21zM22,22H23V23H22zM24,22H25V23H24zM27,22H28V23H27zM30,22H31V23H30zM33,22H34V23H33zM3,23H4V24H3zM4,23H5V24H4zM6,23H7V24H6zM7,23H8V24H7zM8,23H9V24H8zM9,23H10V24H9zM10,23H11V24H10zM12,23H13V24H12zM13,23H14V24H13zM14,23H15V24H14zM16,23H17V24H16zM19,23H20V24H19zM21,23H22V24H21zM22,23H23V24H22zM23,23H24V24H23zM24,23H25V24H24zM27,23H28V24H27zM28,23H29V24H28zM29,23H30V24H29zM31,23H32V24H31zM32,23H33V24H32zM33,23H34V24H33zM2,24H3V25H2zM6,24H7V25H6zM8,24H9V25H8zM11,24H12V25H11zM14,24H15V25H14zM16,24H17V25H16zM19,24H20V25H19zM20,24H21V25H20zM24,24H25V25H24zM25,24H26V25H25zM26,24H27V25H26zM29,24H30V25H29zM30,24H31V25H30zM1,25H2V26H1zM4,25H5V26H4zM5,25H6V26H5zM6,25H7V26H6zM7,25H8V26H7zM8,25H9V26H8zM9,25H10V26H9zM13,25H14V26H13zM14,25H15V26H14zM18,25H19V26H18zM19,25H20V26H19zM20,25H21V26H20zM23,25H24V26H23zM24,25H25V26H24zM25,25H26V26H25zM26,25H27V26H26zM27,25H28V26H27zM28,25H29V26H28zM29,25H30V26H29zM32,25H33V26H32zM9,26H10V27H9zM10,26H11V27H10zM12,26H13V27H12zM13,26H14V27H13zM14,26H15V27H14zM15,26H16V27H15zM16,26H17V27H16zM17,26H18V27H17zM20,26H21V27H20zM25,26H26V27H25zM29,26H30V27H29zM30,26H31V27H30zM1,27H2V28H1zM2,27H3V28H2zM3,27H4V28H3zM4,27H5V28H4zM5,27H6V28H5zM6,27H7V28H6zM7,27H8V28H7zM9,27H10V28H9zM12,27H13V28H12zM14,27H15V28H14zM15,27H16V28H15zM18,27H19V28H18zM19,27H20V28H19zM20,27H21V28H20zM24,27H25V28H24zM25,27H26V28H25zM27,27H28V28H27zM29,27H30V28H29zM1,28H2V29H1zM7,28H8V29H7zM9,28H10V29H9zM15,28H16V29H15zM16,28H17V29H16zM18,28H19V29H18zM19,28H20V29H19zM21,28H22V29H21zM22,28H23V29H22zM24,28H25V29H24zM25,28H26V29H25zM29,28H30V29H29zM30,28H31V29H30zM31,28H32V29H31zM33,28H34V29H33zM1,29H2V30H1zM3,29H4V30H3zM4,29H5V30H4zM5,29H6V30H5zM7,29H8V30H7zM10,29H11V30H10zM13,29H14V30H13zM17,29H18V30H17zM18,29H19V30H18zM19,29H20V30H19zM21,29H22V30H21zM22,29H23V30H22zM24,29H25V30H24zM25,29H26V30H25zM26,29H27V30H26zM27,29H28V30H27zM28,29H29V30H28zM29,29H30V30H29zM31,29H32V30H31zM32,29H33V30H32zM1,30H2V31H1zM3,30H4V31H3zM4,30H5V31H4zM5,30H6V31H5zM7,30H8V31H7zM9,30H10V31H9zM11,30H12V31H11zM12,30H13V31H12zM14,30H15V31H14zM17,30H18V31H17zM18,30H19V31H18zM21,30H22V31H21zM22,30H23V31H22zM23,30H24V31H23zM28,30H29V31H28zM30,30H31V31H30zM31,30H32V31H31zM33,30H34V31H33zM1,31H2V32H1zM3,31H4V32H3zM4,31H5V32H4zM5,31H6V32H5zM7,31H8V32H7zM9,31H10V32H9zM10,31H11V32H10zM16,31H17V32H16zM17,31H18V32H17zM18,31H19V32H18zM22,31H23V32H22zM27,31H28V32H27zM28,31H29V32H28zM1,32H2V33H1zM7,32H8V33H7zM10,32H11V33H10zM12,32H13V33H12zM13,32H14V33H13zM14,32H15V33H14zM18,32H19V33H18zM19,32H20V33H19zM20,32H21V33H20zM23,32H24V33H23zM24,32H25V33H24zM25,32H26V33H25zM28,32H29V33H28zM29,32H30V33H29zM33,32H34V33H33zM1,33H2V34H1zM2,33H3V34H2zM3,33H4V34H3zM4,33H5V34H4zM5,33H6V34H5zM6,33H7V34H6zM7,33H8V34H7zM9,33H10V34H9zM11,33H12V34H11zM13,33H14V34H13zM15,33H16V34H15zM17,33H18V34H17zM18,33H19V34H18zM19,33H20V34H19zM21,33H22V34H21zM22,33H23V34H22zM24,33H25V34H24zM29,33H30V34H29zM30,33H31V34H30zM31,33H32V34H31z" id="qr-path" fill="#000000" fill-opacity="1" fill-rule="nonzero" stroke="none" /></svg>